<?xml version="1.0" encoding="UTF-8"?><svg id="Layer_2" xmlns="http://www.w3.org/2000/svg" viewBox="0 0 305.56 260.5"><g id="_Layer_"><path d="M282.97,99.36c-1.71,0-3.43-.67-4.71-1.99l-16.58-17.07c-2.53-2.6-2.47-6.76.14-9.29,2.6-2.53,6.76-2.47,9.29.14l16.58,17.07c2.53,2.6,2.47,6.76-.14,9.29-1.28,1.24-2.93,1.86-4.58,1.86Z" fill="#ff7449"/><path d="M273.76,56.26c-3.26,0-6.09-2.43-6.51-5.75-.45-3.6,2.09-6.89,5.69-7.34l25.22-3.19c3.6-.45,6.89,2.09,7.34,5.69.45,3.6-2.09,6.89-5.69,7.34l-25.22,3.19c-.28.04-.56.05-.83.05Z" fill="#ff7449"/><path d="M254.92,36.85c-1.59,0-3.19-.58-4.45-1.74-2.67-2.46-2.83-6.62-.37-9.28l19.76-21.41c2.46-2.67,6.62-2.83,9.28-.37,2.67,2.46,2.83,6.62.37,9.28l-19.76,21.41c-1.3,1.4-3.06,2.11-4.83,2.11Z" fill="#ff7449"/><path d="M241.66,112.85c-3.44,0-6.33-2.68-6.55-6.16l-1.51-23.94c-.23-3.62,2.52-6.74,6.14-6.97,3.62-.23,6.74,2.52,6.97,6.14l1.51,23.94c.23,3.62-2.52,6.74-6.14,6.97-.14,0-.28.01-.42.01Z" fill="#ff7449"/><path d="M117.78,36.08h70.32c.55,0,1,.45,1,1v43.31h-72.32v-43.31c0-.55.45-1,1-1Z" transform="translate(42.08 -62.14) rotate(26.51)" fill="#083070"/><path d="M248.33,62.88c-.33,0-.66-.02-1-.08-20.74-3.17-27.54-20.82-32.04-32.49-1.51-3.92-3.07-7.97-4.54-9.7-6.88-8.09-13.23-9.51-21.92-4.91-5.38,2.85-14.8,21.31-20.45,36.77-1.25,3.41-5.02,5.16-8.43,3.92-3.41-1.24-5.16-5.02-3.92-8.42,2.25-6.16,14.1-37.21,26.64-43.87,9.83-5.22,24.42-8.07,38.09,8,2.91,3.42,4.71,8.09,6.79,13.48,5.01,13,9.5,22.35,21.77,24.23,3.59.55,6.05,3.9,5.5,7.49-.5,3.25-3.3,5.58-6.49,5.58Z" fill="#083070"/><path d="M150.22,63.71c-51.32-25.6-113.68-4.75-139.27,46.58-25.6,51.32-4.74,113.68,46.58,139.28,51.32,25.6,113.68,4.75,139.27-46.58,25.6-51.32,4.75-113.68-46.58-139.27ZM181.71,171.22l-13.88.34-8.39,20.25,9.58,10.05-20.29,20.29-10.05-9.58-20.25,8.39-.34,13.88h-28.69l-.34-13.88-20.25-8.39-10.05,9.58-20.29-20.29,9.58-10.05-8.39-20.25-13.88-.34v-28.69l13.88-.34,8.39-20.25-9.58-10.05,20.29-20.29,10.05,9.58,20.25-8.39.34-13.88h28.69l.34,13.88,20.25,8.39,10.05-9.58,20.29,20.29-9.58,10.05,8.39,20.25,13.88.34v28.69Z" fill="#083070"/><path d="M103.75,104.32c-29.03,0-52.56,23.53-52.56,52.56s23.53,52.56,52.56,52.56,52.56-23.53,52.56-52.56-23.53-52.56-52.56-52.56ZM125.53,164.65h-22.24c-3.53,0-6.4-2.86-6.4-6.4v-35.41c0-3.53,2.86-6.4,6.4-6.4s6.4,2.86,6.4,6.4v29.02h15.85c3.53,0,6.4,2.86,6.4,6.4s-2.86,6.4-6.4,6.4Z" fill="#083070"/></g></svg>